# xmcd CD Database Entry
#
# Track frame offsets:
# 150
# 9143
# 26773
# 46611
# 63577
# 81678
# 99855
# 119853
# 139462
# 160291
# 180708
# 194003
# 211479
# 226989
# 255894
#
# Disc length: 3662 seconds
#
# Revision: 1
# Processed by: cddbd v1.4PL0 Copyright (c) Steve Scherf et al.
# Submitted via: tcd 2.0b
#
DISCID=d10e4c0f
DTITLE=Nieznany - Nieznany
DYEAR=1900
DGENRE=
TTITLE0=¦cie¿ka 1
TTITLE1=¦cie¿ka 2
TTITLE2=¦cie¿ka 3
TTITLE3=¦cie¿ka 4
TTITLE4=¦cie¿ka 5
TTITLE5=¦cie¿ka 6
TTITLE6=¦cie¿ka 7
TTITLE7=¦cie¿ka 8
TTITLE8=¦cie¿ka 9
TTITLE9=¦cie¿ka 10
TTITLE10=¦cie¿ka 11
TTITLE11=¦cie¿ka 12
TTITLE12=¦cie¿ka 13
TTITLE13=¦cie¿ka 14
TTITLE14=¦cie¿ka 15
EXTD=
EXTT0=
EXTT1=
EXTT2=
EXTT3=
EXTT4=
EXTT5=
EXTT6=
EXTT7=
EXTT8=
EXTT9=
EXTT10=
EXTT11=
EXTT12=
EXTT13=
EXTT14=
PLAYORDER=
